<svg width="32" height="32" viewBox="0 0 32 32" fill="none" xmlns="http://www.w3.org/2000/svg">
<rect width="32" height="32" rx="2" fill="white"/>
<rect x="1.5" y="1.5" width="29" height="29" rx="14.5" stroke="#00509E"/>
<rect x="11.0088" y="7.13647" width="2.77858" height="2.77858" rx="0.5" fill="#00509E"/>
<rect x="9" y="11.0264" width="2.77858" height="2.77858" rx="0.5" fill="#B0C9E1"/>
<rect x="11.0088" y="14.9163" width="2.77858" height="2.77858" rx="0.5" fill="#00509E"/>
<path d="M11.0088 23.1963C11.0088 22.9201 11.2326 22.6963 11.5088 22.6963H13.2874C13.5635 22.6963 13.7874 22.9201 13.7874 23.1963V24.8636H11.0088V23.1963Z" fill="#00509E"/>
<rect x="14.7881" y="7.13647" width="2.77858" height="2.77858" rx="0.5" fill="#00509E"/>
<rect x="14.7881" y="14.9163" width="2.77858" height="2.77858" rx="0.5" fill="#00509E"/>
<path d="M14.7881 23.1963C14.7881 22.9201 15.0119 22.6963 15.2881 22.6963H17.0667C17.3428 22.6963 17.5667 22.9201 17.5667 23.1963V24.8636H14.7881V23.1963Z" fill="#00509E"/>
<rect x="18.5664" y="7.13647" width="2.77858" height="2.77858" rx="0.5" fill="#B0C9E1"/>
<rect x="18.5664" y="14.9163" width="2.77858" height="2.77858" rx="0.5" fill="#B0C9E1"/>
<rect x="20.2217" y="18.8064" width="2.77858" height="2.77858" rx="0.5" fill="#00509E"/>
<path d="M18.5664 23.1963C18.5664 22.9201 18.7903 22.6963 19.0664 22.6963H20.845C21.1211 22.6963 21.345 22.9201 21.345 23.1963V24.8636H18.5664V23.1963Z" fill="#B0C9E1"/>
</svg>
