<svg width="260" height="260" viewBox="0 0 260 260" fill="none" xmlns="http://www.w3.org/2000/svg">
<rect x="2" y="2" width="256" height="256" rx="128" stroke="#00509E" stroke-width="4"/>
<rect x="87.7695" y="55" width="23.511" height="23.511" rx="4" fill="#00509E"/>
<rect x="70.7695" y="87.9154" width="23.511" height="23.511" rx="4" fill="#B0C9E1"/>
<rect x="87.7695" y="120.831" width="23.511" height="23.511" rx="4" fill="#00509E"/>
<path d="M87.7695 190.661C87.7695 188.452 89.5604 186.661 91.7695 186.661H107.281C109.49 186.661 111.281 188.452 111.281 190.661V205H87.7695V190.661Z" fill="#00509E"/>
<rect x="119.744" y="55" width="23.511" height="23.511" rx="4" fill="#00509E"/>
<rect x="119.744" y="120.831" width="23.511" height="23.511" rx="4" fill="#00509E"/>
<path d="M119.744 190.661C119.744 188.452 121.535 186.661 123.744 186.661H139.255C141.464 186.661 143.255 188.452 143.255 190.661V205H119.744V190.661Z" fill="#00509E"/>
<rect x="151.72" y="55" width="23.511" height="23.511" rx="4" fill="#B0C9E1"/>
<rect x="151.72" y="120.831" width="23.511" height="23.511" rx="4" fill="#B0C9E1"/>
<rect x="165.72" y="153.746" width="23.511" height="23.511" rx="4" fill="#00509E"/>
<path d="M151.72 190.661C151.72 188.452 153.511 186.661 155.72 186.661H171.231C173.44 186.661 175.231 188.452 175.231 190.661V205H151.72V190.661Z" fill="#B0C9E1"/>
</svg>
