<svg width="585" height="107" viewBox="0 0 585 107" fill="none" xmlns="http://www.w3.org/2000/svg">
<path d="M30.7201 106.368C26.1121 106.368 21.9734 105.984 18.3041 105.216C14.6348 104.448 10.5388 103.424 6.0161 102.144C3.02944 101.291 1.0241 100.821 0.000102043 100.736L1.1521 77.056H11.5201L14.3361 93.568C15.4454 94.7626 17.4081 95.8293 20.2241 96.768C23.1254 97.7066 26.4108 98.176 30.0801 98.176C35.7974 98.176 40.0641 96.9386 42.8801 94.464C45.7814 91.904 47.2321 88.3626 47.2321 83.84C47.2321 80.8533 46.3788 78.2933 44.6721 76.16C42.9654 73.9413 40.6188 71.9786 37.6321 70.272C34.6454 68.48 30.5494 66.432 25.3441 64.128C18.2614 60.8853 12.3734 57.0453 7.6801 52.608C3.0721 48.0853 0.768102 41.984 0.768102 34.304C0.768102 29.5253 2.00544 25.216 4.4801 21.376C6.95477 17.4506 10.6241 14.3786 15.4881 12.16C20.4374 9.85596 26.4534 8.70396 33.5361 8.70396C37.7174 8.70396 41.3868 9.00262 44.5441 9.59995C47.7868 10.1973 51.2854 11.008 55.0401 12.032C57.2588 12.6293 58.9228 13.0133 60.0321 13.184L59.2641 35.584H49.0241L46.3361 19.84C45.5681 19.072 44.0321 18.3466 41.7281 17.664C39.4241 16.896 36.8641 16.512 34.0481 16.512C28.9281 16.512 25.0454 17.7066 22.4001 20.096C19.8401 22.4 18.5601 25.5146 18.5601 29.44C18.5601 32.5973 19.4988 35.328 21.3761 37.632C23.3388 39.936 25.6854 41.8986 28.4161 43.52C31.1468 45.056 35.4561 47.2746 41.3441 50.176C46.1228 52.48 50.2188 54.7413 53.6321 56.96C57.0454 59.1786 59.9894 62.08 62.4641 65.664C64.9388 69.1626 66.1761 73.3013 66.1761 78.08C66.1761 82.7733 64.9814 87.2533 62.5921 91.52C60.2881 95.7866 56.4481 99.328 51.0721 102.144C45.7814 104.96 38.9974 106.368 30.7201 106.368ZM73.9251 69.76C73.9251 62.4213 75.3758 55.8933 78.2771 50.176C81.2638 44.4586 85.4878 40.0213 90.9491 36.864C96.4958 33.6213 102.938 32 110.277 32C113.69 32 116.634 32.256 119.109 32.768C121.584 33.28 124.357 33.9626 127.429 34.816L131.141 35.84L130.373 57.728H119.237L116.037 43.648C115.525 41.4293 113.008 40.32 108.485 40.32C103.706 40.32 99.9518 42.4106 97.2211 46.592C94.5758 50.7733 93.2104 57.3013 93.1251 66.176C93.1251 75.5626 94.7464 82.7733 97.9891 87.808C101.232 92.7573 105.541 95.232 110.917 95.232C117.402 95.232 123.376 93.4826 128.837 89.984L131.781 96.64C129.562 99.0293 126.149 101.248 121.541 103.296C117.018 105.344 112.112 106.368 106.821 106.368C95.8984 106.368 87.6638 102.997 82.1171 96.256C76.6558 89.5146 73.9251 80.6826 73.9251 69.76ZM147.98 11.392L138.252 9.72796V2.81596L162.06 -4.57764e-05H162.444L165.772 2.43195L165.9 30.976L165.004 42.112C167.649 39.7226 171.233 37.504 175.756 35.456C180.364 33.408 185.185 32.384 190.22 32.384C195.596 32.384 199.777 33.408 202.764 35.456C205.751 37.4186 207.841 40.448 209.036 44.544C210.231 48.64 210.828 54.1013 210.828 60.928V96.128L219.02 97.28V104.96H185.356V97.28L192.78 96.128V60.928C192.78 56.4906 192.481 53.0346 191.884 50.56C191.287 48.0853 190.177 46.2506 188.556 45.056C187.02 43.8613 184.716 43.264 181.644 43.264C178.999 43.264 176.268 43.904 173.452 45.184C170.721 46.3786 168.289 47.8293 166.156 49.536V96.128L173.964 97.28V104.96H140.812V97.28L147.98 96.256V11.392ZM227.714 69.504C227.714 61.4826 229.293 54.656 232.45 49.024C235.693 43.392 240.002 39.168 245.378 36.352C250.754 33.4506 256.599 32 262.914 32C273.666 32 281.943 35.328 287.746 41.984C293.634 48.5546 296.578 57.5146 296.578 68.864C296.578 76.9706 294.957 83.8826 291.714 89.6C288.557 95.232 284.29 99.456 278.914 102.272C273.623 105.003 267.778 106.368 261.378 106.368C250.711 106.368 242.434 103.083 236.546 96.512C230.658 89.856 227.714 80.8533 227.714 69.504ZM262.402 98.048C272.045 98.048 276.866 88.7466 276.866 70.144C276.866 60.416 275.714 53.0346 273.41 48C271.106 42.88 267.351 40.32 262.146 40.32C252.247 40.32 247.298 49.6213 247.298 68.224C247.298 77.952 248.493 85.376 250.882 90.496C253.357 95.5306 257.197 98.048 262.402 98.048ZM315.638 11.392L306.166 9.72796V2.81596L329.846 -4.57764e-05H330.102L333.558 2.43195V96.256L342.902 97.28V104.96H306.678V97.28L315.638 96.128V11.392ZM350.306 84.992C350.306 77.2266 354.189 71.3813 361.954 67.456C369.805 63.5306 379.917 61.5253 392.29 61.44V58.496C392.29 54.9973 391.906 52.2666 391.138 50.304C390.455 48.3413 389.133 46.8906 387.17 45.952C385.293 44.928 382.519 44.416 378.85 44.416C374.669 44.416 370.914 44.9706 367.586 46.08C364.258 47.104 360.802 48.4693 357.218 50.176L353.25 41.984C354.53 40.8746 356.663 39.552 359.65 38.016C362.722 36.48 366.349 35.1573 370.53 34.048C374.711 32.8533 379.021 32.256 383.458 32.256C390.029 32.256 395.149 33.1093 398.818 34.816C402.573 36.5226 405.261 39.2533 406.882 43.008C408.503 46.7626 409.314 51.7973 409.314 58.112V97.28H416.226V104.448C414.519 104.875 412.087 105.301 408.93 105.728C405.773 106.155 402.999 106.368 400.61 106.368C397.709 106.368 395.746 105.941 394.722 105.088C393.783 104.235 393.314 102.485 393.314 99.84V96.384C391.01 98.944 388.023 101.248 384.354 103.296C380.685 105.344 376.546 106.368 371.938 106.368C368.013 106.368 364.386 105.557 361.058 103.936C357.815 102.229 355.213 99.7973 353.25 96.64C351.287 93.3973 350.306 89.5146 350.306 84.992ZM380.13 95.744C381.922 95.744 383.97 95.232 386.274 94.208C388.578 93.0986 390.583 91.776 392.29 90.24V69.248C384.61 69.248 378.85 70.5706 375.01 73.216C371.255 75.776 369.378 79.104 369.378 83.2C369.378 87.296 370.317 90.4106 372.194 92.544C374.157 94.6773 376.802 95.744 380.13 95.744ZM424.214 97.408L432.662 96.384V45.952L424.47 43.648V34.816L444.31 32.128H444.694L447.894 34.688V37.504L447.51 47.872H447.894C448.491 46.1653 449.899 44.0746 452.118 41.6C454.337 39.04 457.11 36.8213 460.438 34.944C463.851 32.9813 467.521 32 471.446 32C473.323 32 474.945 32.256 476.31 32.768V51.968C473.75 50.176 470.635 49.28 466.966 49.28C460.737 49.28 455.318 50.944 450.71 54.272V96.256L465.558 97.408V104.96H424.214V97.408ZM499.696 22.144C496.624 22.144 494.192 21.248 492.4 19.456C490.608 17.664 489.712 15.36 489.712 12.544C489.712 9.30129 490.736 6.61329 492.784 4.47996C494.832 2.34662 497.563 1.27995 500.976 1.27995C504.389 1.27995 506.992 2.21862 508.784 4.09595C510.576 5.88796 511.472 8.14929 511.472 10.88C511.472 14.2933 510.448 17.024 508.4 19.072C506.352 21.12 503.493 22.144 499.824 22.144H499.696ZM492.912 45.952L483.824 43.52V34.944L507.248 32.128H507.504L511.088 34.688V96.256L519.664 97.28V104.96H483.952V97.28L492.912 96.128V45.952ZM543.047 94.464C543.73 95.488 545.266 96.4693 547.655 97.408C550.13 98.2613 552.604 98.688 555.079 98.688C559.09 98.688 562.076 97.8773 564.039 96.256C566.087 94.5493 567.111 92.3306 567.111 89.6C567.111 86.784 565.874 84.5226 563.399 82.816C560.924 81.024 556.743 78.848 550.855 76.288L547.271 74.752C541.383 72.2773 536.988 69.2906 534.087 65.792C531.186 62.2933 529.735 57.7706 529.735 52.224C529.735 48.384 530.887 44.9706 533.191 41.984C535.495 38.912 538.738 36.5226 542.919 34.816C547.1 33.1093 551.922 32.256 557.383 32.256C561.394 32.256 564.807 32.512 567.623 33.024C570.524 33.536 573.554 34.2186 576.711 35.072C578.418 35.6693 579.698 36.0106 580.551 36.096V52.864H570.439L567.495 43.136C566.983 42.2826 565.831 41.5146 564.039 40.832C562.247 40.1493 560.199 39.808 557.895 39.808C554.396 39.808 551.58 40.576 549.447 42.112C547.399 43.5626 546.375 45.6106 546.375 48.256C546.375 50.6453 547.1 52.6506 548.551 54.272C550.002 55.808 551.58 57.0026 553.287 57.856C554.994 58.7093 558.151 60.1173 562.759 62.08C567.367 64.0426 571.164 65.92 574.151 67.712C577.223 69.504 579.74 71.8506 581.703 74.752C583.751 77.568 584.775 81.024 584.775 85.12C584.775 91.4346 582.3 96.5546 577.351 100.48C572.402 104.405 565.276 106.368 555.975 106.368C551.623 106.368 547.698 105.984 544.199 105.216C540.786 104.448 536.818 103.424 532.295 102.144L529.479 101.248V84.352H540.103L543.047 94.464Z" fill="#00509E"/>
</svg>
